<?xml version="1.0" encoding="UTF-8"?>
<svg id="Layer_1" data-name="Layer 1" xmlns="http://www.w3.org/2000/svg" viewBox="0 0 2000 2000">
  <defs>
    <style>
      .cls-1 {
        fill: #fff;
      }
    </style>
  </defs>
  <path class="cls-1" d="M1020.79,1738.61c-211.36-89.88-377.6-234.64-488.19-409.04-164.55-259.49-182.57-560.3-124.31-848.73,233.09-9.33,456.26-24.96,611.37-197.78,155.7,173.27,377.85,188.01,611.3,197.84,59.21,292.87,39.6,592.75-128.27,855.74-111.12,170.09-271.12,309.54-481.9,401.96ZM1020.41,1631.59c254.73-130.63,424.51-337.7,492.18-579.46,44.74-158.78,47.17-320.58,21.51-480.54-192.94-12.03-369.37-41.64-514.48-149.87-149.17,111.36-324.62,136.59-515,150.56-67.41,420.87,73.84,832.87,515.8,1059.31Z"/>
  <polygon class="cls-1" points="1085.91 1294.87 953.31 1294.25 952.92 1067.72 687.61 1067.28 687.3 954.41 952.83 953.47 953.49 726.51 1086.06 726.99 1086.36 953.62 1351.67 954.11 1351.75 1067.22 1086.33 1067.68 1085.91 1294.87"/>
</svg>